<svg width="580" height="400" xmlns="http://www.w3.org/2000/svg">
 <!-- Created with Method Draw - http://github.com/duopixel/Method-Draw/ -->
 <g>
  <title>background</title>
  <rect fill="#fff" id="canvas_background" height="402" width="582" y="-1" x="-1"/>
 </g>
 <g>
  <title>Layer 1</title>
  <rect id="svg_2" height="13" width="468" y="325" x="63.299999" stroke-width="null" stroke="#000000" fill="#DDDDDD"/>
  <rect id="svg_4" height="85" width="13" y="253" x="63.299995" stroke-width="null" stroke="#000000" fill="#DDDDDD"/>
  <rect id="svg_5" height="85" width="13" y="253" x="365" stroke-width="null" stroke="#000000" fill="#DDDDDD"/>
  <rect id="svg_10" height="132" width="92" y="148" x="24.299999" stroke-opacity="null" stroke-width="null" stroke="#000000" fill="#ffffff"/>
  <rect id="svg_12" height="132" width="92" y="148" x="326.299999" stroke-opacity="null" stroke-width="null" stroke="#000000" fill="#ffffff"/>
  <text xml:space="preserve" text-anchor="start" font-family="Arvo, sans-serif" font-size="12" id="svg_13" y="143" x="58.299999" fill-opacity="null" stroke-opacity="null" stroke-width="0" stroke="#000000" fill="#000000">CPU</text>
  <text xml:space="preserve" text-anchor="start" font-family="Arvo, sans-serif" font-size="12" id="svg_17" y="143" x="350.299999" fill-opacity="null" stroke-opacity="null" stroke-width="0" stroke="#000000" fill="#000000">controller</text>
  <rect id="svg_20" height="18" width="62" y="234" x="341.299999" stroke-opacity="null" stroke-width="null" stroke="#000000" fill="#ffffff"/>
  <rect id="svg_22" height="18" width="62" y="182" x="341.299999" stroke-opacity="null" stroke-width="null" stroke="#000000" fill="#ffffff"/>
  <rect id="svg_23" height="18" width="62" y="208" x="341.299999" stroke-opacity="null" stroke-width="null" stroke="#000000" fill="#ffffff"/>
  <path transform="rotate(-179.56704711914062 445.99523925781244,197.51574707031247) " stroke="#000000" id="svg_42" d="m463.598819,203.82628c1.399297,-1.130819 2.737567,-2.434504 3.916489,-3.604776l-35.324644,-0.536989l-4.845323,4.624491l-15.35009,-0.397188c1.923385,-2.105474 4.030383,-4.578839 5.592536,-6.43658l-5.556865,-6.245338l16.378203,0l3.332445,3.902131l36.065597,0l-4.473658,-3.893398c1.380631,-1.226958 3.423887,-2.864357 4.532281,-3.722869l12.129461,9.923033l-12.15705,10.076967l-4.239386,-3.689487l0.000005,0.000002z" stroke-opacity="null" stroke-width="null" fill="#ffffff"/>
  <text xml:space="preserve" text-anchor="start" font-family="Arvo, sans-serif" font-size="12" id="svg_57" y="351" x="509.299999" fill-opacity="null" stroke-opacity="null" stroke-width="0" stroke="#000000" fill="#000000">Bus</text>
  <path transform="rotate(-0.31535306572914124 505.42852783204216,184.21710205077625) " id="svg_61" d="m477.428515,184.21711l9.333343,-16.500001l37.333229,0c5.154695,0 9.333426,7.387293 9.333426,16.500001c0,9.112611 -4.178731,16.500002 -9.333426,16.500002l-37.333229,0l-9.333343,-16.500002z" stroke-opacity="null" stroke-width="null" stroke="#000000" fill="#ffffff"/>
  <line stroke-linecap="null" stroke-linejoin="null" id="svg_62" y2="184" x2="418.299999" y1="184" x1="478.299999" stroke-opacity="null" stroke-width="null" stroke="#000000" fill="none"/>
  <text xml:space="preserve" text-anchor="start" font-family="Arvo, sans-serif" font-size="12" id="svg_64" y="162" x="488.299999" fill-opacity="null" stroke-opacity="null" stroke-width="0" stroke="#000000" fill="#000000">Device</text>
  <text xml:space="preserve" text-anchor="start" font-family="Arvo, sans-serif" font-size="12" id="svg_65" y="129" x="353.299999" fill-opacity="null" stroke-opacity="null" stroke-width="0" stroke="#000000" fill="#000000">Interrupt</text>
  <path stroke="#000000" id="svg_66" d="m231.598819,203.661485c1.399297,-1.130819 2.737567,-2.434504 3.916489,-3.604776l-35.324644,-0.536989l-4.845323,4.624492l-15.350091,-0.397188c1.923385,-2.105474 4.030383,-4.578839 5.592536,-6.43658l-5.556865,-6.245338l16.378202,0l3.332446,3.902131l36.065596,0l-4.473658,-3.893398c1.380632,-1.226957 3.423887,-2.864357 4.532282,-3.722869l12.129461,9.923033l-12.15705,10.076967l-4.239385,-3.689487l0.000004,0.000002z" stroke-opacity="null" stroke-width="null" fill="#ffffff"/>
  <path transform="rotate(-179.56704711914062 213.99485778808594,241.51576232910156) " stroke="#000000" id="svg_67" d="m231.598422,247.82628c1.399297,-1.130819 2.737567,-2.434504 3.916489,-3.604776l-35.324644,-0.536989l-4.845323,4.624492l-15.350091,-0.397188c1.923385,-2.105474 4.030383,-4.578839 5.592536,-6.43658l-5.556865,-6.245338l16.378202,0l3.332446,3.902131l36.065596,0l-4.473658,-3.893398c1.380632,-1.226958 3.423887,-2.864357 4.532282,-3.722869l12.129461,9.923033l-12.15705,10.076967l-4.239385,-3.689487l0.000004,0.000002z" stroke-opacity="null" stroke-width="null" fill="#ffffff"/>
  <text xml:space="preserve" text-anchor="start" font-family="Arvo, sans-serif" font-size="12" id="svg_68" y="224" x="421.299999" fill-opacity="null" stroke-opacity="null" stroke-width="0" stroke="#000000" fill="#000000">1. Device finishes</text>
  <text xml:space="preserve" text-anchor="start" font-family="Arvo, sans-serif" font-size="12" id="svg_69" y="267" x="140.299999" fill-opacity="null" stroke-opacity="null" stroke-width="0" stroke="#000000" fill="#000000">2. Controller issues an interrupt</text>
  <text xml:space="preserve" text-anchor="start" font-family="Arvo, sans-serif" font-size="12" id="svg_70" y="180" x="150.299999" fill-opacity="null" stroke-opacity="null" stroke-width="0" stroke="#000000" fill="#000000">3. CPU acks the interrupt</text>
 </g>
</svg>