<svg width="580" height="400" xmlns="http://www.w3.org/2000/svg">
 <!-- Created with Method Draw - http://github.com/duopixel/Method-Draw/ -->

 <g>
  <title>background</title>
  <rect fill="#fff" id="canvas_background" height="402" width="582" y="-1" x="-1"/>
 </g>
 <g>
  <title>Layer 1</title>
  <rect stroke="#000000" id="svg_1" height="150" width="400" y="154" x="50" stroke-opacity="null" stroke-width="null" fill="#ffffff"/>
  <rect id="svg_2" height="125" width="400" y="29" x="50" stroke-opacity="null" stroke-width="null" stroke="#000000" fill="#ffffff"/>
  <text style="cursor: move;" transform="rotate(-90 33.89062500000001,100.609375) " xml:space="preserve" text-anchor="start" font-family="Arvo, sans-serif" font-size="12" id="svg_4" y="105" x="4.299999" fill-opacity="null" stroke-opacity="null" stroke-width="0" stroke="#000000" fill="#000000">user space</text>
  <text xml:space="preserve" text-anchor="start" font-family="Arvo, sans-serif" font-size="12" id="svg_7" y="334" x="7.299999" fill-opacity="null" stroke-opacity="null" stroke-width="0" stroke="#000000" fill="#000000">Hardware</text>
  <text xml:space="preserve" text-anchor="start" font-family="Arvo, sans-serif" font-size="12" id="svg_8" y="372" x="7.299999" fill-opacity="null" stroke-opacity="null" stroke-width="0" stroke="#000000" fill="#000000">Devices</text>
  <ellipse ry="40" rx="40" id="svg_9" cy="92" cx="251.299999" stroke-opacity="null" stroke-width="null" stroke="#000000" fill="#ffffff"/>
  <text xml:space="preserve" text-anchor="start" font-family="Arvo, sans-serif" font-size="12" id="svg_10" y="95" x="215.299999" fill-opacity="null" stroke-opacity="null" stroke-width="0" stroke="#000000" fill="#000000">User program</text>
  <text transform="rotate(-90 35.296875000000036,214.60937500000003) " xml:space="preserve" text-anchor="start" font-family="Arvo, sans-serif" font-size="12" id="svg_11" y="219" x="1.299999" fill-opacity="null" stroke-opacity="null" stroke-width="0" stroke="#000000" fill="#000000">kernel space</text>
  <line stroke="#000000" stroke-linecap="null" stroke-linejoin="null" id="svg_12" y2="21" x2="299.299999" y1="55" x1="265.299999" fill-opacity="null" stroke-opacity="null" stroke-width="null" fill="none"/>
  <text xml:space="preserve" text-anchor="start" font-family="Arvo, sans-serif" font-size="12" id="svg_13" y="17" x="299.299999" fill-opacity="null" stroke-opacity="null" stroke-width="0" stroke="#000000" fill="#000000">User process</text>
  <rect id="svg_14" height="23" width="340" y="168" x="79.299999" stroke-opacity="null" stroke-width="null" stroke="#000000" fill="#ffffff"/>
  <text xml:space="preserve" text-anchor="start" font-family="Arvo, sans-serif" font-size="12" id="svg_15" y="184" x="174.50938" stroke-opacity="null" stroke-width="0" stroke="#000000" fill="#000000">Rest of the operating system</text>
  <rect id="svg_16" height="36" width="80" y="242" x="323.299999" fill-opacity="null" stroke-opacity="null" stroke-width="null" stroke="#000000" fill="#ffffff"/>
  <rect id="svg_17" height="36" width="80" y="242" x="95.299999" fill-opacity="null" stroke-opacity="null" stroke-width="null" stroke="#000000" fill="#ffffff"/>
  <rect id="svg_18" height="36" width="80" y="242" x="209.299999" fill-opacity="null" stroke-opacity="null" stroke-width="null" stroke="#000000" fill="#ffffff"/>
  <rect id="svg_19" height="22" width="112" y="319" x="314.299999" fill-opacity="null" stroke-opacity="null" stroke-width="null" stroke="#000000" fill="#ffffff"/>
  <rect id="svg_20" height="22" width="112" y="319" x="75.299999" fill-opacity="null" stroke-opacity="null" stroke-width="null" stroke="#000000" fill="#ffffff"/>
  <rect id="svg_21" height="22" width="112" y="319" x="195.299999" fill-opacity="null" stroke-opacity="null" stroke-width="null" stroke="#000000" fill="#ffffff"/>
  <text xml:space="preserve" text-anchor="start" font-family="Arvo, sans-serif" font-size="12" id="svg_23" y="335" x="88.299999" fill-opacity="null" stroke-opacity="null" stroke-width="0" stroke="#000000" fill="#000000">Printer controller</text>
  <text style="cursor: move;" xml:space="preserve" text-anchor="start" font-family="Arvo, sans-serif" font-size="12" id="svg_24" y="335" x="203.299999" fill-opacity="null" stroke-opacity="null" stroke-width="0" stroke="#000000" fill="#000000">Speaker controller</text>
  <text transform="matrix(1,0,0,1,0,0) " xml:space="preserve" text-anchor="start" font-family="Arvo, sans-serif" font-size="12" id="svg_25" y="335" x="321.299999" fill-opacity="null" stroke-opacity="null" stroke-width="0" stroke="#000000" fill="#000000">CD-ROM controller</text>
  <text xml:space="preserve" text-anchor="start" font-family="Arvo, sans-serif" font-size="12" id="svg_26" y="255" x="119.299999" fill-opacity="null" stroke-opacity="null" stroke-width="0" stroke="#000000" fill="#000000">Printer</text>
  <text style="cursor: move;" xml:space="preserve" text-anchor="start" font-family="Arvo, sans-serif" font-size="12" id="svg_27" y="255" x="228.299999" fill-opacity="null" stroke-opacity="null" stroke-width="0" stroke="#000000" fill="#000000">Speaker</text>
  <text xml:space="preserve" text-anchor="start" font-family="Arvo, sans-serif" font-size="12" id="svg_28" y="255" x="338.299999" fill-opacity="null" stroke-opacity="null" stroke-width="0" stroke="#000000" fill="#000000">CD-ROM</text>
  <text xml:space="preserve" text-anchor="start" font-family="Arvo, sans-serif" font-size="12" id="svg_29" y="270" x="349.299999" fill-opacity="null" stroke-opacity="null" stroke-width="0" stroke="#000000" fill="#000000">driver</text>
  <text xml:space="preserve" text-anchor="start" font-family="Arvo, sans-serif" font-size="12" id="svg_30" y="270" x="121.299999" fill-opacity="null" stroke-opacity="null" stroke-width="0" stroke="#000000" fill="#000000">driver</text>
  <text xml:space="preserve" text-anchor="start" font-family="Arvo, sans-serif" font-size="12" id="svg_31" y="270" x="234.299999" fill-opacity="null" stroke-opacity="null" stroke-width="0" stroke="#000000" fill="#000000">driver</text>
  <path id="svg_32" d="m157.891222,361.277631l-4.428444,0c-0.4324,-2.848899 -2.604844,-5.865755 -5.105244,-8.434016c-2.667511,-2.636294 -5.543911,-4.749582 -7.904356,-5.038724c-0.129511,-0.017008 -0.259022,-0.029765 -0.4136,-0.031891l-15.518356,0c-0.248578,0 -0.490889,0.099924 -0.666356,0.280638c-0.173378,0.176462 -0.275733,0.425209 -0.275733,0.680334l0,12.543659l-4.332356,0c-2.306133,0 -4.177778,1.904935 -4.177778,4.252088l0,18.86864l8.510133,0l0,4.420045c0,0.250873 0.096089,0.48899 0.275733,0.676082c0.179644,0.180714 0.415689,0.278512 0.666356,0.278512l28.085111,0c0.246489,0 0.484622,-0.097798 0.664267,-0.278512s0.288267,-0.423083 0.288267,-0.676082l0,-4.420045l8.510133,0l0,-18.86864c0,-2.347153 -1.869556,-4.252088 -4.177778,-4.252088zm-6.224889,26.577675l-26.2072,0l0,-6.646013l26.2072,0l0,6.646013zm0,-22.7593c0,-0.063781 0,-0.133941 -0.006267,-0.2041c-0.031333,-0.144571 -0.129511,-0.287016 -0.259022,-0.425209l-25.941911,0l0,-14.776005l14.595067,0l0,0.002126c0.637111,-0.040395 1.1844,0.599544 1.606356,2.064389c0.382267,1.392559 0.478356,3.2082 0.478356,4.468944c0.002089,0.920577 -0.039689,1.541382 -0.039689,1.541382l-0.077289,1.016249l1.002667,0.01063c0.004178,0 2.316578,0.029765 4.5872,0.552771c2.1808,0.480486 3.885333,1.43508 4.048267,2.517236c0.006267,0.095672 0.006267,0.19347 0.006267,0.282764l0,2.948823z" fill-opacity="null" stroke-opacity="null" stroke-width="null" stroke="#000000" fill="#ffffff"/>
  <path id="svg_33" d="m227.998,360.516771l0,14.168462l8.501628,0l12.726909,9.91577l0.007565,-34.000003l-12.7288,9.91577l-8.507302,0zm26.115791,-1.629301c-0.743301,-0.698016 -1.936745,-0.698016 -2.676263,0.003589c-0.737627,0.701604 -0.737627,1.83745 0.003783,2.540849l0,-0.003589c1.632237,1.550348 2.638436,3.676694 2.638436,6.039899c0,2.36141 -1.004308,4.480579 -2.634654,6.030927c-0.745193,0.698016 -0.745193,1.833861 -0.003783,2.539054c0.368814,0.349905 0.853,0.525755 1.337186,0.525755c0.486078,0 0.970264,-0.17585 1.339077,-0.525755c2.311232,-2.189149 3.744877,-5.230632 3.742986,-8.569982c0.001891,-3.346528 -1.437428,-6.391599 -3.746769,-8.580748zm4.340653,-4.116319c-0.743301,-0.701604 -1.936745,-0.701604 -2.672481,0c-0.74141,0.701604 -0.74141,1.839244 0,2.53726c2.742461,2.603652 4.43333,6.185244 4.43333,10.158012c0,3.969179 -1.690869,7.548977 -4.429547,10.154424c-0.74141,0.69981 -0.74141,1.835656 0,2.53726c0.368814,0.349905 0.853,0.525755 1.339077,0.525755c0.484186,0 0.968372,-0.17585 1.337186,-0.525755c3.419565,-3.246042 5.539771,-7.74277 5.535988,-12.691684c0.001891,-4.952502 -2.118314,-9.452819 -5.543553,-12.695272z" fill-opacity="null" stroke-opacity="null" stroke-width="null" stroke="#000000" fill="#ffffff"/>
  <path id="svg_35" d="m362.487674,362.276099c-3.115178,0 -5.639397,2.283817 -5.639397,5.102311c0,2.817187 2.524219,5.102311 5.639397,5.102311c0.713775,0 1.389982,-0.133342 2.018508,-0.352965l1.207926,1.679854l1.963603,-1.156942l-1.200702,-1.668088c1.018646,-0.922939 1.650062,-2.197537 1.650062,-3.604169c0,-2.818494 -2.524219,-5.102311 -5.639397,-5.102311zm-0.021673,-13.810099c-11.598115,0 -21.000001,8.506467 -21.000001,18.999999c0,10.493532 9.401885,18.999999 21.000001,18.999999c11.598115,0 21.000001,-8.506467 21.000001,-18.999999c0,-10.493532 -9.401885,-18.999999 -21.000001,-18.999999zm14.700289,25.286705c-0.348218,0.658869 -0.741227,1.294207 -1.193477,1.895555l-4.562956,-0.887643c-0.694991,0.687629 -1.48679,1.299436 -2.360947,1.810582l0.171942,4.185909c-0.732558,0.300674 -1.485345,0.550365 -2.267029,0.745149l-2.824756,-3.2865c-0.537498,0.066671 -1.083666,0.112426 -1.641393,0.112426c-0.51438,0 -1.020091,-0.037911 -1.518577,-0.096739l-2.810307,3.268198c-0.781684,-0.197399 -1.538806,-0.44709 -2.268474,-0.743842l0.169052,-4.112701c-0.916059,-0.520297 -1.745425,-1.150406 -2.473648,-1.865488l-4.441585,0.86019c-0.45225,-0.596119 -0.84237,-1.234072 -1.193477,-1.892941l3.016926,-3.018508c-0.326545,-0.919017 -0.51149,-1.896862 -0.556282,-2.906082l-3.99945,-1.913857c0.079469,-0.735998 0.238407,-1.447158 0.434911,-2.14786l4.456034,-0.558208c0.419017,-0.91771 0.975299,-1.767442 1.639948,-2.538737l-1.707857,-3.792417c0.57651,-0.508532 1.199257,-0.972616 1.853791,-1.398789l3.847736,2.185771c0.939177,-0.440553 1.949154,-0.775217 3.012591,-0.98046l1.398651,-3.923145c0.401679,-0.027453 0.801913,-0.054906 1.209371,-0.054906c0.407458,0 0.809137,0.02876 1.209371,0.054906l1.410211,3.958442c1.040319,0.213087 2.024288,0.543828 2.941792,0.98046l3.906977,-2.218453c0.657424,0.426173 1.281616,0.890257 1.856681,1.398789l-1.756984,3.903536c0.618412,0.737306 1.145796,1.543897 1.54314,2.41193l4.601968,0.57651c0.19506,0.699394 0.356887,1.413169 0.436356,2.14786l-4.142494,1.981836c-0.049126,0.949085 -0.216733,1.86941 -0.512935,2.745287l3.115178,3.113939z" fill-opacity="null" stroke-opacity="null" stroke-width="null" stroke="#000000" fill="#ffffff"/>
  <line stroke="#000000" stroke-linecap="null" stroke-linejoin="null" id="svg_36" y2="242" x2="365.299999" y1="191" x1="365.299999" fill-opacity="null" stroke-opacity="null" stroke-width="null" fill="none"/>
  <line stroke="#000000" stroke-linecap="null" stroke-linejoin="null" id="svg_37" y2="242" x2="138.299999" y1="191" x1="138.299999" fill-opacity="null" stroke-opacity="null" stroke-width="null" fill="none"/>
  <line stroke="#000000" stroke-linecap="null" stroke-linejoin="null" id="svg_38" y2="242" x2="250.299999" y1="191" x1="250.299999" fill-opacity="null" stroke-opacity="null" stroke-width="null" fill="none"/>
  <line stroke-linecap="null" stroke-linejoin="null" id="svg_40" y2="132" x2="250.299999" y1="167" x1="250.299999" fill-opacity="null" stroke-opacity="null" stroke-width="null" stroke="#000000" fill="none"/>
  <line stroke-linecap="null" stroke-linejoin="null" id="svg_42" y2="320" x2="363.299999" y1="278" x1="363.299999" fill-opacity="null" stroke-opacity="null" stroke-width="null" stroke="#000000" fill="none"/>
  <line stroke-linecap="null" stroke-linejoin="null" id="svg_44" y2="319" x2="138.299999" y1="277" x1="138.299999" fill-opacity="null" stroke-opacity="null" stroke-width="null" stroke="#000000" fill="none"/>
  <line stroke-linecap="null" stroke-linejoin="null" id="svg_45" y2="319" x2="248.299999" y1="277" x1="248.299999" fill-opacity="null" stroke-opacity="null" stroke-width="null" stroke="#000000" fill="none"/>
 </g>
</svg>