<svg width="580" height="400" xmlns="http://www.w3.org/2000/svg">
 <!-- Created with Method Draw - http://github.com/duopixel/Method-Draw/ -->
 <g>
  <title>background</title>
  <rect fill="#fff" id="canvas_background" height="402" width="582" y="-1" x="-1"/>
 </g>
 <g>
  <title>Layer 1</title>
  <rect stroke="#000000" id="svg_10" height="40" width="200" y="80" x="50" stroke-opacity="null" stroke-width="null" fill="#ffffff"/>
  <rect stroke="#000000" id="svg_11" height="40" width="200" y="120" x="50" stroke-opacity="null" stroke-width="null" fill="#ffffff"/>
  <rect stroke="#000000" id="svg_12" height="40" width="200" y="160" x="50" stroke-opacity="null" stroke-width="null" fill="#ffffff"/>
  <rect stroke="#000000" id="svg_13" height="40" width="200" y="200" x="50" stroke-opacity="null" stroke-width="null" fill="#ffffff"/>
  <rect stroke="#000000" id="svg_14" height="40" width="200" y="240" x="50" stroke-opacity="null" stroke-width="null" fill="#ffffff"/>
  <text transform="matrix(1,0,0,1,0,0) " xml:space="preserve" text-anchor="start" font-family="Arvo, sans-serif" font-size="12" id="svg_15" y="104.390625" x="108.003124" fill-opacity="null" stroke-opacity="null" stroke-width="0" stroke="#000000" fill="#000000">User processes</text>
  <text xml:space="preserve" text-anchor="start" font-family="Arvo, sans-serif" font-size="12" id="svg_16" y="144.390625" x="73.604687" fill-opacity="null" stroke-opacity="null" stroke-width="0" stroke="#000000" fill="#000000">Device-independent software</text>
  <text xml:space="preserve" text-anchor="start" font-family="Arvo, sans-serif" font-size="12" id="svg_17" y="184.390625" x="112.003124" fill-opacity="null" stroke-opacity="null" stroke-width="0" stroke="#000000" fill="#000000">Device drivers</text>
  <text xml:space="preserve" text-anchor="start" font-family="Arvo, sans-serif" font-size="12" id="svg_18" y="224.390625" x="104.409374" fill-opacity="null" stroke-opacity="null" stroke-width="0" stroke="#000000" fill="#000000">Interrupt handlers</text>
  <text xml:space="preserve" text-anchor="start" font-family="Arvo, sans-serif" font-size="12" id="svg_19" y="264.390625" x="124.003124" fill-opacity="null" stroke-opacity="null" stroke-width="0" stroke="#000000" fill="#000000">Hardware</text>
  <path id="svg_39" d="m59.682627,101.587448" opacity="0.5" stroke-opacity="null" stroke-width="NaN" stroke="#000000" fill="#ffffff"/>
  <path id="svg_40" d="m49.523882,98.41284" opacity="0.5" stroke-opacity="null" stroke-width="NaN" stroke="#000000" fill="#ffffff"/>
  <path stroke="#000000" transform="rotate(89.65586853027344 59.09011459350585,218.307373046875) " id="svg_38" d="m80.870818,221.312376c1.731335,-0.538486 3.387163,-1.159289 4.845831,-1.716562l-43.706815,-0.255709l-5.995068,2.202141l-18.992507,-0.189137c2.379784,-1.002608 4.986751,-2.180402 6.919586,-3.065042l-6.875451,-2.973974l20.264579,0l4.1232,1.85816l44.623587,0l-5.53521,-1.854001c1.708241,-0.584266 4.23634,-1.363981 5.607745,-1.772797l15.007656,4.725259l-15.041791,4.798561l-5.245348,-1.7569l0.000006,0.000001z" stroke-opacity="null" stroke-width="NaN" fill="#ffffff"/>
  <path transform="rotate(-90 239.8844909667969,239.89086914062503) " id="svg_42" d="m248.020608,242.895893c0.646735,-0.538486 1.265264,-1.159289 1.810145,-1.716562l-16.326542,-0.255709l-2.239438,2.202141l-7.094591,-0.189137c0.888961,-1.002608 1.862785,-2.180402 2.584789,-3.065042l-2.568303,-2.973974l7.56977,0l1.540208,1.85816l16.668999,0l-2.06766,-1.854001c0.638107,-0.584266 1.582471,-1.363981 2.094755,-1.772797l5.606062,4.725259l-5.618813,4.798561l-1.959383,-1.7569l0.000002,0.000001z" stroke-opacity="null" stroke-width="NaN" stroke="#000000" fill="#ffffff"/>
  <path transform="rotate(89.65586853027344 58.93183898925785,156.71615600585935) " id="svg_43" d="m67.067961,159.721165c0.646735,-0.538486 1.265264,-1.159289 1.810145,-1.716562l-16.326541,-0.25571l-2.239439,2.202142l-7.094591,-0.189138c0.888961,-1.002607 1.862785,-2.180401 2.58479,-3.065041l-2.568303,-2.973974l7.569769,0l1.540208,1.85816l16.668999,0l-2.06766,-1.854001c0.638108,-0.584267 1.582471,-1.363981 2.094755,-1.772797l5.606062,4.725259l-5.618813,4.798561l-1.959383,-1.7569l0.000002,0.000001z" stroke-opacity="null" stroke-width="NaN" stroke="#000000" fill="#ffffff"/>
  <path transform="rotate(89.65586853027344 59.56676483154299,122.43038940429688) " id="svg_44" d="m67.702883,125.435401c0.646735,-0.538486 1.265264,-1.159289 1.810145,-1.716562l-16.326542,-0.255709l-2.239438,2.202141l-7.094591,-0.189137c0.888961,-1.002608 1.862785,-2.180402 2.584789,-3.065042l-2.568303,-2.973974l7.56977,0l1.540208,1.85816l16.668999,0l-2.06766,-1.854001c0.638107,-0.584266 1.582471,-1.363981 2.094755,-1.772797l5.606062,4.725259l-5.618813,4.798561l-1.959383,-1.7569l0.000002,0.000001z" stroke-opacity="null" stroke-width="NaN" stroke="#000000" fill="#ffffff"/>
  <path transform="rotate(-90 240.2019500732422,120.20816802978514) " id="svg_45" d="m248.338069,123.213176c0.646735,-0.538486 1.265264,-1.159289 1.810145,-1.716562l-16.326542,-0.255709l-2.239438,2.202141l-7.094591,-0.189137c0.888961,-1.002608 1.862785,-2.180402 2.584789,-3.065042l-2.568303,-2.973974l7.56977,0l1.540208,1.85816l16.668999,0l-2.06766,-1.854001c0.638107,-0.584266 1.582471,-1.363981 2.094755,-1.772797l5.606062,4.725259l-5.618813,4.798561l-1.959383,-1.7569l0.000002,0.000001z" stroke-opacity="null" stroke-width="NaN" stroke="#000000" fill="#ffffff"/>
  <path transform="rotate(-90 240.20195007324222,160.2082214355469) " id="svg_46" d="m248.338069,163.213236c0.646735,-0.538486 1.265264,-1.159289 1.810145,-1.716562l-16.326542,-0.255709l-2.239438,2.202141l-7.094591,-0.189137c0.888961,-1.002608 1.862785,-2.180402 2.584789,-3.065042l-2.568303,-2.973974l7.56977,0l1.540208,1.85816l16.668999,0l-2.06766,-1.854001c0.638107,-0.584266 1.582471,-1.363981 2.094755,-1.772797l5.606062,4.725259l-5.618813,4.798561l-1.959383,-1.7569l0.000002,0.000001z" stroke-opacity="null" stroke-width="NaN" stroke="#000000" fill="#ffffff"/>
  <path transform="rotate(-90 239.8844909667969,200.20828247070315) " id="svg_47" d="m248.020608,203.213296c0.646735,-0.538486 1.265264,-1.159289 1.810145,-1.716562l-16.326542,-0.255709l-2.239438,2.202141l-7.094591,-0.189137c0.888961,-1.002608 1.862785,-2.180402 2.584789,-3.065042l-2.568303,-2.973974l7.56977,0l1.540208,1.85816l16.668999,0l-2.06766,-1.854001c0.638107,-0.584266 1.582471,-1.363981 2.094755,-1.772797l5.606062,4.725259l-5.618813,4.798561l-1.959383,-1.7569l0.000002,0.000001z" stroke-opacity="null" stroke-width="NaN" stroke="#000000" fill="#ffffff"/>
  <text xml:space="preserve" text-anchor="start" font-family="Arvo, sans-serif" font-size="12" id="svg_49" y="74.21325" x="2.943954" stroke-opacity="null" stroke-width="0" stroke="#000000" fill="#000000">IO Request</text>
  <line stroke-linecap="null" stroke-linejoin="null" id="svg_50" y2="79.79701" x2="30.862756" y1="104.670124" x1="59.289172" fill-opacity="null" stroke-opacity="null" stroke-width="NaN" stroke="#000000" fill="none"/>
  <text xml:space="preserve" text-anchor="start" font-family="Arvo, sans-serif" font-size="12" id="svg_51" y="74.720864" x="245.583718" fill-opacity="null" stroke-opacity="null" stroke-width="0" stroke="#000000" fill="#000000">IO Reply</text>
  <line stroke-linecap="null" stroke-linejoin="null" id="svg_52" y2="77.766552" x2="268.426373" y1="100.609207" x1="239.999957" fill-opacity="null" stroke-opacity="null" stroke-width="NaN" stroke="#000000" fill="none"/>
  <text xml:space="preserve" text-anchor="start" font-family="Arvo, sans-serif" font-size="12" id="svg_53" y="264.401816" x="283.862398" fill-opacity="null" stroke-opacity="null" stroke-width="0" stroke="#000000" fill="#000000">Perform IO operation</text>
  <text xml:space="preserve" text-anchor="start" font-family="Arvo, sans-serif" font-size="12" id="svg_54" y="224.399279" x="283.859877" fill-opacity="null" stroke-opacity="null" stroke-width="0" stroke="#000000" fill="#000000">Wake up driver when IO completed</text>
  <text xml:space="preserve" text-anchor="start" font-family="Arvo, sans-serif" font-size="12" id="svg_55" y="184.401279" x="283.86895" fill-opacity="null" stroke-opacity="null" stroke-width="0" stroke="#000000" fill="#000000">Set up device register; check status</text>
  <text transform="matrix(1,0,0,1,0,0) " xml:space="preserve" text-anchor="start" font-family="Arvo, sans-serif" font-size="12" id="svg_56" y="144.396726" x="283.870965" fill-opacity="null" stroke-opacity="null" stroke-width="0" stroke="#000000" fill="#000000">Naming, protection, blocking, buffering, allocation</text>
  <text xml:space="preserve" text-anchor="start" font-family="Arvo, sans-serif" font-size="12" id="svg_57" y="104.390664" x="283.86895" fill-opacity="null" stroke-opacity="null" stroke-width="0" stroke="#000000" fill="#000000">Make IO call; format IO; spooling</text>
  <path transform="rotate(90 408.0634765625,288.79870605468756) " id="svg_61" d="m409.707267,288.798736l-16.277957,-108.943088l29.268289,108.943088l-29.268289,108.943031l16.277957,-108.943031z" stroke-opacity="null" stroke="#000000" fill="#ffffff"/>
  <text font-weight="bold" xml:space="preserve" text-anchor="start" font-family="Arvo, sans-serif" font-size="12" id="svg_62" y="323.577205" x="357.723561" fill-opacity="null" stroke-opacity="null" stroke-width="0" stroke="#000000" fill="#000000">Functions of layers</text>
 </g>
</svg>