<svg width="580" height="400" xmlns="http://www.w3.org/2000/svg">
 <!-- Created with Method Draw - http://github.com/duopixel/Method-Draw/ -->
 <g>
  <title>background</title>
  <rect fill="#fff" id="canvas_background" height="402" width="582" y="-1" x="-1"/>
 </g>
 <g>
  <title>Layer 1</title>
  <rect id="svg_2" height="13" width="468" y="325" x="63.299999" stroke-width="null" stroke="#000000" fill="#DDDDDD"/>
  <rect id="svg_3" height="85" width="13" y="253" x="518.300007" stroke-width="null" stroke="#000000" fill="#DDDDDD"/>
  <rect id="svg_4" height="85" width="13" y="253" x="63.299995" stroke-width="null" stroke="#000000" fill="#DDDDDD"/>
  <rect id="svg_5" height="85" width="13" y="253" x="214" stroke-width="null" stroke="#000000" fill="#DDDDDD"/>
  <rect id="svg_6" height="85" width="13" y="253" x="366" stroke-width="null" stroke="#000000" fill="#DDDDDD"/>
  <rect id="svg_7" height="132" width="92" y="148" x="479.299999" stroke-opacity="null" stroke-width="null" stroke="#000000" fill="#ffffff"/>
  <rect id="svg_10" height="132" width="92" y="148" x="24.299999" stroke-opacity="null" stroke-width="null" stroke="#000000" fill="#ffffff"/>
  <rect id="svg_11" height="132" width="92" y="148" x="326.299999" stroke-opacity="null" stroke-width="null" stroke="#000000" fill="#ffffff"/>
  <rect id="svg_12" height="132" width="92" y="148" x="175.299999" stroke-opacity="null" stroke-width="null" stroke="#000000" fill="#ffffff"/>
  <text xml:space="preserve" text-anchor="start" font-family="Arvo, sans-serif" font-size="12" id="svg_13" y="143" x="58.299999" fill-opacity="null" stroke-opacity="null" stroke-width="0" stroke="#000000" fill="#000000">CPU</text>
  <text xml:space="preserve" text-anchor="start" font-family="Arvo, sans-serif" font-size="12" id="svg_14" y="127" x="209.299999" fill-opacity="null" stroke-opacity="null" stroke-width="0" stroke="#000000" fill="#000000">DMA</text>
  <text xml:space="preserve" text-anchor="start" font-family="Arvo, sans-serif" font-size="12" id="svg_15" y="127" x="363.299999" fill-opacity="null" stroke-opacity="null" stroke-width="0" stroke="#000000" fill="#000000">Disk</text>
  <text stroke="#000000" xml:space="preserve" text-anchor="start" font-family="Arvo, sans-serif" font-size="12" id="svg_16" y="127" x="515.299999" fill-opacity="null" stroke-opacity="null" stroke-width="0" fill="#000000">Main</text>
  <text xml:space="preserve" text-anchor="start" font-family="Arvo, sans-serif" font-size="12" id="svg_17" y="143" x="199.299999" fill-opacity="null" stroke-opacity="null" stroke-width="0" stroke="#000000" fill="#000000">controller</text>
  <text xml:space="preserve" text-anchor="start" font-family="Arvo, sans-serif" font-size="12" id="svg_18" y="143" x="349.299999" fill-opacity="null" stroke-opacity="null" stroke-width="0" stroke="#000000" fill="#000000">controller</text>
  <text xml:space="preserve" text-anchor="start" font-family="Arvo, sans-serif" font-size="12" id="svg_19" y="143" x="506.299999" fill-opacity="null" stroke-opacity="null" stroke-width="0" stroke="#000000" fill="#000000">memory</text>
  <rect id="svg_20" height="18" width="62" y="234" x="190.299999" stroke-opacity="null" stroke-width="null" stroke="#000000" fill="#ffffff"/>
  <rect id="svg_22" height="18" width="62" y="182" x="190.299999" stroke-opacity="null" stroke-width="null" stroke="#000000" fill="#ffffff"/>
  <rect id="svg_23" height="18" width="62" y="208" x="190.299999" stroke-opacity="null" stroke-width="null" stroke="#000000" fill="#ffffff"/>
  <text xml:space="preserve" text-anchor="start" font-family="Arvo, sans-serif" font-size="12" id="svg_24" y="196" x="199.299999" fill-opacity="null" stroke-opacity="null" stroke-width="0" stroke="#000000" fill="#000000">Address</text>
  <text xml:space="preserve" text-anchor="start" font-family="Arvo, sans-serif" font-size="12" id="svg_25" y="223" x="204.901562" fill-opacity="null" stroke-opacity="null" stroke-width="0" stroke="#000000" fill="#000000">Count</text>
  <text xml:space="preserve" text-anchor="start" font-family="Arvo, sans-serif" font-size="12" id="svg_26" y="249" x="200.901562" fill-opacity="null" stroke-opacity="null" stroke-width="0" stroke="#000000" fill="#000000">Controll</text>
  <path transform="rotate(-179.56704711914062 145.9952392578125,244.51574707031247) " stroke="#000000" id="svg_42" d="m163.598819,250.82628c1.399297,-1.130819 2.737567,-2.434504 3.916489,-3.604776l-35.324644,-0.536989l-4.845323,4.624491l-15.35009,-0.397188c1.923385,-2.105474 4.030383,-4.578839 5.592536,-6.43658l-5.556865,-6.245338l16.378203,0l3.332445,3.902131l36.065597,0l-4.473658,-3.893398c1.380631,-1.226958 3.423887,-2.864357 4.532281,-3.722869l12.129461,9.923033l-12.15705,10.076967l-4.239386,-3.689487l0.000005,0.000002z" stroke-opacity="null" stroke-width="null" fill="#ffffff"/>
  <path stroke="#000000" id="svg_43" d="m163.598819,197.661485c1.399297,-1.130819 2.737567,-2.434504 3.916489,-3.604776l-35.324644,-0.536989l-4.845323,4.624492l-15.350091,-0.397188c1.923385,-2.105474 4.030383,-4.578839 5.592536,-6.43658l-5.556865,-6.245338l16.378202,0l3.332446,3.902131l36.065596,0l-4.473658,-3.893398c1.380632,-1.226957 3.423887,-2.864357 4.532282,-3.722869l12.129461,9.923033l-12.15705,10.076967l-4.239385,-3.689487l0.000004,0.000002z" stroke-opacity="null" stroke-width="null" fill="#ffffff"/>
  <path stroke="#000000" id="svg_44" d="m315.598819,250.66147c1.399297,-1.130819 2.737567,-2.434504 3.916489,-3.604776l-35.324644,-0.536989l-4.845323,4.624492l-15.350091,-0.397188c1.923385,-2.105474 4.030383,-4.578839 5.592536,-6.43658l-5.556865,-6.245338l16.378202,0l3.332446,3.902131l36.065596,0l-4.473658,-3.893398c1.380632,-1.226957 3.423887,-2.864357 4.532282,-3.722869l12.129461,9.923033l-12.15705,10.076967l-4.239385,-3.689487l0.000004,0.000002z" stroke-opacity="null" stroke-width="null" fill="#ffffff"/>
  <path stroke="#000000" id="svg_45" d="m467.598819,197.661485c1.399297,-1.130819 2.737567,-2.434504 3.916489,-3.604776l-35.324644,-0.536989l-4.845323,4.624492l-15.350091,-0.397188c1.923385,-2.105474 4.030383,-4.578839 5.592536,-6.43658l-5.556865,-6.245338l16.378202,0l3.332446,3.902131l36.065596,0l-4.473658,-3.893398c1.380632,-1.226957 3.423887,-2.864357 4.532282,-3.722869l12.129461,9.923033l-12.15705,10.076967l-4.239385,-3.689487l0.000004,0.000002z" stroke-opacity="null" stroke-width="null" fill="#ffffff"/>
  <path transform="rotate(-179.56704711914062 296.99523925781256,191.5157470703125) " stroke="#000000" id="svg_48" d="m314.598819,197.82628c1.399297,-1.130819 2.737567,-2.434504 3.916489,-3.604776l-35.324644,-0.536989l-4.845323,4.624492l-15.350091,-0.397188c1.923385,-2.105474 4.030383,-4.578839 5.592536,-6.43658l-5.556865,-6.245338l16.378202,0l3.332446,3.902131l36.065596,0l-4.473658,-3.893398c1.380632,-1.226958 3.423887,-2.864357 4.532282,-3.722869l12.129461,9.923033l-12.15705,10.076967l-4.239385,-3.689487l0.000004,0.000002z" stroke-opacity="null" stroke-width="null" fill="#ffffff"/>
  <text xml:space="preserve" text-anchor="start" font-family="Arvo, sans-serif" font-size="12" id="svg_49" y="181" x="142.299999" stroke-opacity="null" stroke-width="0" stroke="#000000" fill="#000000">1</text>
  <text transform="matrix(1,0,0,1,0,0) " xml:space="preserve" text-anchor="start" font-family="Arvo, sans-serif" font-size="12" id="svg_50" y="261" x="293.299999" stroke-opacity="null" stroke-width="0" stroke="#000000" fill="#000000">2</text>
  <text xml:space="preserve" text-anchor="start" font-family="Arvo, sans-serif" font-size="12" id="svg_51" y="181" x="446.299999" stroke-opacity="null" stroke-width="0" stroke="#000000" fill="#000000">3</text>
  <text xml:space="preserve" text-anchor="start" font-family="Arvo, sans-serif" font-size="12" id="svg_52" y="181" x="293.299999" stroke-opacity="null" stroke-width="0" stroke="#000000" fill="#000000">4</text>
  <text xml:space="preserve" text-anchor="start" font-family="Arvo, sans-serif" font-size="12" id="svg_54" y="261" x="142.299999" stroke-opacity="null" stroke-width="0" stroke="#000000" fill="#000000">5</text>
  <rect id="svg_55" height="35" width="48" y="169" x="349.299999" stroke-opacity="null" stroke-width="null" stroke="#000000" fill="#ffffff"/>
  <text xml:space="preserve" text-anchor="start" font-family="Arvo, sans-serif" font-size="12" id="svg_56" y="191" x="357.299999" stroke-opacity="null" stroke-width="0" stroke="#000000" fill="#000000">Buffer</text>
  <text xml:space="preserve" text-anchor="start" font-family="Arvo, sans-serif" font-size="12" id="svg_57" y="351" x="509.299999" fill-opacity="null" stroke-opacity="null" stroke-width="0" stroke="#000000" fill="#000000">Bus</text>
  <path transform="rotate(-90.19688415527344 407.50000000000006,90.576171875) " id="svg_58" d="m391,90.576171l5.500006,-9.999999l21.999938,0c3.037588,0 5.500054,4.477147 5.500054,9.999999c0,5.522794 -2.462467,10 -5.500054,10l-21.999938,0l-5.500006,-10z" fill-opacity="null" stroke-opacity="null" stroke-width="null" stroke="#000000" fill="#ffffff"/>
  <line stroke="#000000" stroke-linecap="null" stroke-linejoin="null" id="svg_59" y2="147.999999" x2="407.299999" y1="106" x1="407.299999" fill-opacity="null" stroke-opacity="null" stroke-width="null" fill="none"/>
  <text xml:space="preserve" text-anchor="start" font-family="Arvo, sans-serif" font-size="12" id="svg_60" y="83" x="419.299999" fill-opacity="null" stroke-opacity="null" stroke-width="0" stroke="#000000" fill="#000000">Drive</text>
 </g>
</svg>